<svg width="34" height="34" viewBox="0 0 34 34" fill="none" xmlns="http://www.w3.org/2000/svg">
<path d="M31.1666 17C31.1666 9.18004 24.8199 2.83337 16.9999 2.83337C9.17992 2.83337 2.83325 9.18004 2.83325 17C2.83325 24.82 9.17992 31.1667 16.9999 31.1667" stroke="#0E0E2C" stroke-width="2.125" stroke-linecap="round" stroke-linejoin="round"/>
<path d="M11.3334 4.25012H12.7501C9.9876 12.5235 9.9876 21.4768 12.7501 29.7501H11.3334" stroke="#0E0E2C" stroke-width="2.125" stroke-linecap="round" stroke-linejoin="round"/>
<path d="M21.25 4.25012C22.6242 8.38679 23.3183 12.6935 23.3183 17.0001" stroke="#0E0E2C" stroke-width="2.125" stroke-linecap="round" stroke-linejoin="round"/>
<path d="M4.25 22.6667V21.25C8.38667 22.6242 12.6933 23.3184 17 23.3184" stroke="#0E0E2C" stroke-width="2.125" stroke-linecap="round" stroke-linejoin="round"/>
<path d="M4.25 12.7503C12.5233 9.98784 21.4767 9.98784 29.75 12.7503" stroke="#0E0E2C" stroke-width="2.125" stroke-linecap="round" stroke-linejoin="round"/>
<path d="M25.7833 30.3167C28.287 30.3167 30.3167 28.287 30.3167 25.7834C30.3167 23.2797 28.287 21.25 25.7833 21.25C23.2796 21.25 21.25 23.2797 21.25 25.7834C21.25 28.287 23.2796 30.3167 25.7833 30.3167Z" stroke="#0E0E2C" stroke-width="2.125" stroke-linecap="round" stroke-linejoin="round"/>
<path d="M31.1667 31.1667L29.75 29.75" stroke="#0E0E2C" stroke-width="2.125" stroke-linecap="round" stroke-linejoin="round"/>
</svg>
