<svg width="34" height="34" viewBox="0 0 34 34" fill="none" xmlns="http://www.w3.org/2000/svg">
<path d="M16.9999 31.1665C24.824 31.1665 31.1666 24.8238 31.1666 16.9998C31.1666 9.17576 24.824 2.83313 16.9999 2.83313C9.17588 2.83313 2.83325 9.17576 2.83325 16.9998C2.83325 24.8238 9.17588 31.1665 16.9999 31.1665Z" stroke="#0E0E2C" stroke-width="2.125" stroke-linecap="round" stroke-linejoin="round"/>
<path d="M11.3334 4.25H12.7501C9.9876 12.5233 9.9876 21.4767 12.7501 29.75H11.3334" stroke="#0E0E2C" stroke-width="2.125" stroke-linecap="round" stroke-linejoin="round"/>
<path d="M21.25 4.25C24.0125 12.5233 24.0125 21.4767 21.25 29.75" stroke="#0E0E2C" stroke-width="2.125" stroke-linecap="round" stroke-linejoin="round"/>
<path d="M4.25 22.6667V21.25C12.5233 24.0125 21.4767 24.0125 29.75 21.25V22.6667" stroke="#0E0E2C" stroke-width="2.125" stroke-linecap="round" stroke-linejoin="round"/>
<path d="M4.25 12.7501C12.5233 9.9876 21.4767 9.9876 29.75 12.7501" stroke="#0E0E2C" stroke-width="2.125" stroke-linecap="round" stroke-linejoin="round"/>
</svg>
