<svg width="34" height="34" viewBox="0 0 34 34" fill="none" xmlns="http://www.w3.org/2000/svg">
<path d="M3.24414 11.0216V24.8058C3.24414 27.4974 5.15664 28.6024 7.47997 27.2708L10.8091 25.3724C11.5316 24.9616 12.7358 24.9191 13.4866 25.3016L20.9241 29.0274C21.675 29.3958 22.8791 29.3674 23.6016 28.9566L29.7358 25.4433C30.515 24.9899 31.1666 23.8849 31.1666 22.9783V9.19409C31.1666 6.50242 29.2541 5.39742 26.9308 6.72909L23.6016 8.62742C22.8791 9.03826 21.675 9.08076 20.9241 8.69826L13.4866 4.98659C12.7358 4.61826 11.5316 4.64659 10.8091 5.05742L4.67497 8.57076C3.88164 9.02409 3.24414 10.1291 3.24414 11.0216Z" stroke="#0E0E2C" stroke-width="2.125" stroke-linecap="round" stroke-linejoin="round"/>
<path d="M12.127 5.66663V24.0833" stroke="#0E0E2C" stroke-width="2.125" stroke-linecap="round" stroke-linejoin="round"/>
<path d="M22.2842 9.37842V28.3334" stroke="#0E0E2C" stroke-width="2.125" stroke-linecap="round" stroke-linejoin="round"/>
</svg>
